<?xml version="1.0" encoding="UTF-8"?>
<svg xmlns="http://www.w3.org/2000/svg"
     width="493.4mm" height="487.2mm"
     viewBox="0 0 493.4 487.2">
  <!-- Laser-cut enclosure for e-ink camera -->
  <!-- Red = cut, Blue = engrave/score -->
  <!-- Units: mm. Material: 3.0mm plywood. Burn: 0.1mm -->
  <g fill="none" stroke="red" stroke-width="0.1">
    <!-- Front Plate 150x220mm -->
    <path d="M19,19 L22,19 L33.077,19 L33.177,19 L33.177,22 L44.054,22 L44.054,19 L55.231,19 L55.331,19 L55.331,22 L66.208,22 L66.208,19 L77.385,19 L77.485,19 L77.485,22 L88.362,22 L88.362,19 L99.538,19 L99.638,19 L99.638,22 L110.515,22 L110.515,19 L121.692,19 L121.792,19 L121.792,22 L132.669,22 L132.669,19 L143.846,19 L143.946,19 L143.946,22 L154.823,22 L154.823,19 L166,19 L169,19 L169,30.589 L169,30.689 L166,30.689 L166,42.079 L169,42.079 L169,53.768 L169,53.868 L166,53.868 L166,65.258 L169,65.258 L169,76.947 L169,77.047 L166,77.047 L166,88.437 L169,88.437 L169,100.126 L169,100.226 L166,100.226 L166,111.616 L169,111.616 L169,123.305 L169,123.405 L166,123.405 L166,134.795 L169,134.795 L169,146.484 L169,146.584 L166,146.584 L166,157.974 L169,157.974 L169,169.663 L169,169.763 L166,169.763 L166,181.153 L169,181.153 L169,192.842 L169,192.942 L166,192.942 L166,204.332 L169,204.332 L169,216.021 L169,216.121 L166,216.121 L166,227.511 L169,227.511 L169,239.2 L166,239.2 L154.923,239.2 L154.823,239.2 L154.823,236.2 L143.946,236.2 L143.946,239.2 L132.769,239.2 L132.669,239.2 L132.669,236.2 L121.792,236.2 L121.792,239.2 L110.615,239.2 L110.515,239.2 L110.515,236.2 L99.638,236.2 L99.638,239.2 L88.462,239.2 L88.362,239.2 L88.362,236.2 L77.485,236.2 L77.485,239.2 L66.308,239.2 L66.208,239.2 L66.208,236.2 L55.331,236.2 L55.331,239.2 L44.154,239.2 L44.054,239.2 L44.054,236.2 L33.177,236.2 L33.177,239.2 L22,239.2 L19,239.2 L19,227.611 L19,227.511 L22,227.511 L22,216.121 L19,216.121 L19,204.432 L19,204.332 L22,204.332 L22,192.942 L19,192.942 L19,181.253 L19,181.153 L22,181.153 L22,169.763 L19,169.763 L19,158.074 L19,157.974 L22,157.974 L22,146.584 L19,146.584 L19,134.895 L19,134.795 L22,134.795 L22,123.405 L19,123.405 L19,111.716 L19,111.616 L22,111.616 L22,100.226 L19,100.226 L19,88.537 L19,88.437 L22,88.437 L22,77.047 L19,77.047 L19,65.358 L19,65.258 L22,65.258 L22,53.868 L19,53.868 L19,42.179 L19,42.079 L22,42.079 L22,30.689 L19,30.689 L19,19Z M36.6,65.1 L151.4,65.1 A2,2 0 0,1 153.4,67.1 L153.4,221.9 A2,2 0 0,1 151.4,223.9 L36.6,223.9 A2,2 0 0,1 34.6,221.9 L34.6,67.1 A2,2 0 0,1 36.6,65.1Z M90.1,36 A3.9,3.9 0 1,0 97.9,36 A3.9,3.9 0 1,0 90.1,36Z" fill-rule="evenodd"/>
    <!-- Back Plate 150x220mm -->
    <path d="M184,19 L187,19 L198.077,19 L198.177,19 L198.177,22 L209.054,22 L209.054,19 L220.231,19 L220.331,19 L220.331,22 L231.208,22 L231.208,19 L242.385,19 L242.485,19 L242.485,22 L253.362,22 L253.362,19 L264.538,19 L264.638,19 L264.638,22 L275.515,22 L275.515,19 L286.692,19 L286.792,19 L286.792,22 L297.669,22 L297.669,19 L308.846,19 L308.946,19 L308.946,22 L319.823,22 L319.823,19 L331,19 L334,19 L334,30.589 L334,30.689 L331,30.689 L331,42.079 L334,42.079 L334,53.768 L334,53.868 L331,53.868 L331,65.258 L334,65.258 L334,76.947 L334,77.047 L331,77.047 L331,88.437 L334,88.437 L334,100.126 L334,100.226 L331,100.226 L331,111.616 L334,111.616 L334,123.305 L334,123.405 L331,123.405 L331,134.795 L334,134.795 L334,146.484 L334,146.584 L331,146.584 L331,157.974 L334,157.974 L334,169.663 L334,169.763 L331,169.763 L331,181.153 L334,181.153 L334,192.842 L334,192.942 L331,192.942 L331,204.332 L334,204.332 L334,216.021 L334,216.121 L331,216.121 L331,227.511 L334,227.511 L334,239.2 L331,239.2 L319.923,239.2 L319.823,239.2 L319.823,236.2 L308.946,236.2 L308.946,239.2 L297.769,239.2 L297.669,239.2 L297.669,236.2 L286.792,236.2 L286.792,239.2 L275.615,239.2 L275.515,239.2 L275.515,236.2 L264.638,236.2 L264.638,239.2 L253.462,239.2 L253.362,239.2 L253.362,236.2 L242.485,236.2 L242.485,239.2 L231.308,239.2 L231.208,239.2 L231.208,236.2 L220.331,236.2 L220.331,239.2 L209.154,239.2 L209.054,239.2 L209.054,236.2 L198.177,236.2 L198.177,239.2 L187,239.2 L184,239.2 L184,227.611 L184,227.511 L187,227.511 L187,216.121 L184,216.121 L184,204.432 L184,204.332 L187,204.332 L187,192.942 L184,192.942 L184,181.253 L184,181.153 L187,181.153 L187,169.763 L184,169.763 L184,158.074 L184,157.974 L187,157.974 L187,146.584 L184,146.584 L184,134.895 L184,134.795 L187,134.795 L187,123.405 L184,123.405 L184,111.716 L184,111.616 L187,111.616 L187,100.226 L184,100.226 L184,88.537 L184,88.437 L187,88.437 L187,77.047 L184,77.047 L184,65.358 L184,65.258 L187,65.258 L187,53.868 L184,53.868 L184,42.179 L184,42.079 L187,42.079 L187,30.689 L184,30.689 L184,19Z M218.85,83.5 A1.15,1.15 0 1,0 221.15,83.5 A1.15,1.15 0 1,0 218.85,83.5Z M218.85,132.5 A1.15,1.15 0 1,0 221.15,132.5 A1.15,1.15 0 1,0 218.85,132.5Z M276.85,83.5 A1.15,1.15 0 1,0 279.15,83.5 A1.15,1.15 0 1,0 276.85,83.5Z M276.85,132.5 A1.15,1.15 0 1,0 279.15,132.5 A1.15,1.15 0 1,0 276.85,132.5Z" fill-rule="evenodd"/>
    <!-- Top Wall 144x29mm -->
    <path d="M19,262.2 L30.077,262.2 L29.977,262.2 L29.977,259.2 L41.254,259.2 L41.254,262.2 L52.231,262.2 L52.131,262.2 L52.131,259.2 L63.408,259.2 L63.408,262.2 L74.385,262.2 L74.285,262.2 L74.285,259.2 L85.562,259.2 L85.562,262.2 L96.538,262.2 L96.438,262.2 L96.438,259.2 L107.715,259.2 L107.715,262.2 L118.692,262.2 L118.592,262.2 L118.592,259.2 L129.869,259.2 L129.869,262.2 L140.846,262.2 L140.746,262.2 L140.746,259.2 L152.023,259.2 L152.023,262.2 L163,262.2 L163,271.867 L163,271.767 L166,271.767 L166,281.633 L163,281.633 L163,291.2 L151.923,291.2 L152.023,291.2 L152.023,294.2 L140.746,294.2 L140.746,291.2 L129.769,291.2 L129.869,291.2 L129.869,294.2 L118.592,294.2 L118.592,291.2 L107.615,291.2 L107.715,291.2 L107.715,294.2 L96.438,294.2 L96.438,291.2 L85.462,291.2 L85.562,291.2 L85.562,294.2 L74.285,294.2 L74.285,291.2 L63.308,291.2 L63.408,291.2 L63.408,294.2 L52.131,294.2 L52.131,291.2 L41.154,291.2 L41.254,291.2 L41.254,294.2 L29.977,294.2 L29.977,291.2 L19,291.2 L19,281.533 L19,281.633 L16,281.633 L16,271.767 L19,271.767 L19,262.2Z"/>
    <!-- Bottom Wall 144x29mm -->
    <path d="M178,262.2 L189.077,262.2 L188.977,262.2 L188.977,259.2 L200.254,259.2 L200.254,262.2 L211.231,262.2 L211.131,262.2 L211.131,259.2 L222.408,259.2 L222.408,262.2 L233.385,262.2 L233.285,262.2 L233.285,259.2 L244.562,259.2 L244.562,262.2 L255.538,262.2 L255.438,262.2 L255.438,259.2 L266.715,259.2 L266.715,262.2 L277.692,262.2 L277.592,262.2 L277.592,259.2 L288.869,259.2 L288.869,262.2 L299.846,262.2 L299.746,262.2 L299.746,259.2 L311.023,259.2 L311.023,262.2 L322,262.2 L322,271.867 L322,271.767 L325,271.767 L325,281.633 L322,281.633 L322,291.2 L310.923,291.2 L311.023,291.2 L311.023,294.2 L299.746,294.2 L299.746,291.2 L288.769,291.2 L288.869,291.2 L288.869,294.2 L277.592,294.2 L277.592,291.2 L266.615,291.2 L266.715,291.2 L266.715,294.2 L255.438,294.2 L255.438,291.2 L244.462,291.2 L244.562,291.2 L244.562,294.2 L233.285,294.2 L233.285,291.2 L222.308,291.2 L222.408,291.2 L222.408,294.2 L211.131,294.2 L211.131,291.2 L200.154,291.2 L200.254,291.2 L200.254,294.2 L188.977,294.2 L188.977,291.2 L178,291.2 L178,281.533 L178,281.633 L175,281.633 L175,271.767 L178,271.767 L178,262.2Z M244.1,273.3 L255.9,273.3 L255.9,280.1 L244.1,280.1Z" fill-rule="evenodd"/>
    <!-- Left Wall 220x29mm -->
    <path d="M19,314.2 L30.589,314.2 L30.489,314.2 L30.489,311.2 L42.279,311.2 L42.279,314.2 L53.768,314.2 L53.668,314.2 L53.668,311.2 L65.458,311.2 L65.458,314.2 L76.947,314.2 L76.847,314.2 L76.847,311.2 L88.637,311.2 L88.637,314.2 L100.126,314.2 L100.026,314.2 L100.026,311.2 L111.816,311.2 L111.816,314.2 L123.305,314.2 L123.205,314.2 L123.205,311.2 L134.995,311.2 L134.995,314.2 L146.484,314.2 L146.384,314.2 L146.384,311.2 L158.174,311.2 L158.174,314.2 L169.663,314.2 L169.563,314.2 L169.563,311.2 L181.353,311.2 L181.353,314.2 L192.842,314.2 L192.742,314.2 L192.742,311.2 L204.532,311.2 L204.532,314.2 L216.021,314.2 L215.921,314.2 L215.921,311.2 L227.711,311.2 L227.711,314.2 L239.2,314.2 L239.2,323.867 L239.2,323.967 L236.2,323.967 L236.2,333.433 L239.2,333.433 L239.2,343.2 L227.611,343.2 L227.711,343.2 L227.711,346.2 L215.921,346.2 L215.921,343.2 L204.432,343.2 L204.532,343.2 L204.532,346.2 L192.742,346.2 L192.742,343.2 L181.253,343.2 L181.353,343.2 L181.353,346.2 L169.563,346.2 L169.563,343.2 L158.074,343.2 L158.174,343.2 L158.174,346.2 L146.384,346.2 L146.384,343.2 L134.895,343.2 L134.995,343.2 L134.995,346.2 L123.205,346.2 L123.205,343.2 L111.716,343.2 L111.816,343.2 L111.816,346.2 L100.026,346.2 L100.026,343.2 L88.537,343.2 L88.637,343.2 L88.637,346.2 L76.847,346.2 L76.847,343.2 L65.358,343.2 L65.458,343.2 L65.458,346.2 L53.668,346.2 L53.668,343.2 L42.179,343.2 L42.279,343.2 L42.279,346.2 L30.489,346.2 L30.489,343.2 L19,343.2 L19,333.533 L19,333.433 L22,333.433 L22,323.967 L19,323.967 L19,314.2Z"/>
    <!-- Right Wall 220x29mm -->
    <path d="M254.2,314.2 L265.789,314.2 L265.689,314.2 L265.689,311.2 L277.479,311.2 L277.479,314.2 L288.968,314.2 L288.868,314.2 L288.868,311.2 L300.658,311.2 L300.658,314.2 L312.147,314.2 L312.047,314.2 L312.047,311.2 L323.837,311.2 L323.837,314.2 L335.326,314.2 L335.226,314.2 L335.226,311.2 L347.016,311.2 L347.016,314.2 L358.505,314.2 L358.405,314.2 L358.405,311.2 L370.195,311.2 L370.195,314.2 L381.684,314.2 L381.584,314.2 L381.584,311.2 L393.374,311.2 L393.374,314.2 L404.863,314.2 L404.763,314.2 L404.763,311.2 L416.553,311.2 L416.553,314.2 L428.042,314.2 L427.942,314.2 L427.942,311.2 L439.732,311.2 L439.732,314.2 L451.221,314.2 L451.121,314.2 L451.121,311.2 L462.911,311.2 L462.911,314.2 L474.4,314.2 L474.4,323.867 L474.4,323.967 L471.4,323.967 L471.4,333.433 L474.4,333.433 L474.4,343.2 L462.811,343.2 L462.911,343.2 L462.911,346.2 L451.121,346.2 L451.121,343.2 L439.632,343.2 L439.732,343.2 L439.732,346.2 L427.942,346.2 L427.942,343.2 L416.453,343.2 L416.553,343.2 L416.553,346.2 L404.763,346.2 L404.763,343.2 L393.274,343.2 L393.374,343.2 L393.374,346.2 L381.584,346.2 L381.584,343.2 L370.095,343.2 L370.195,343.2 L370.195,346.2 L358.405,346.2 L358.405,343.2 L346.916,343.2 L347.016,343.2 L347.016,346.2 L335.226,346.2 L335.226,343.2 L323.737,343.2 L323.837,343.2 L323.837,346.2 L312.047,346.2 L312.047,343.2 L300.558,343.2 L300.658,343.2 L300.658,346.2 L288.868,346.2 L288.868,343.2 L277.379,343.2 L277.479,343.2 L277.479,346.2 L265.689,346.2 L265.689,343.2 L254.2,343.2 L254.2,333.533 L254.2,333.433 L257.2,333.433 L257.2,323.967 L254.2,323.967 L254.2,314.2Z M358.4,328.7 A5.9,5.9 0 1,0 370.2,328.7 A5.9,5.9 0 1,0 358.4,328.7Z" fill-rule="evenodd"/>
  </g>
  <g fill="#444" stroke="none" font-family="monospace" font-size="3.5">
    <text x="19" y="372.2" font-weight="bold">E-INK CAMERA ENCLOSURE</text>
    <text x="19" y="377.2" ></text>
    <text x="19" y="382.2" font-weight="bold">Box (outer):  150.0 x 220.2 x 35.0 mm  (5.91 x 8.67 x 1.38 in)  (15.0 x 22.0 x 3.5 cm)</text>
    <text x="19" y="387.2" font-weight="bold">Box (inner):  144.0 x 214.2 x 29.0 mm</text>
    <text x="19" y="392.2" font-weight="bold">Material:     3.0mm plywood, burn comp: 0.1mm</text>
    <text x="19" y="397.2" ></text>
    <text x="19" y="402.2" font-weight="bold">PANELS</text>
    <text x="19" y="407.2" >  Front plate:   150.0 x 220.2 mm</text>
    <text x="19" y="412.2" >  Back plate:    150.0 x 220.2 mm</text>
    <text x="19" y="417.2" >  Top wall:      144.0 x 29.0 mm  (fits between side walls)</text>
    <text x="19" y="422.2" >  Bottom wall:   144.0 x 29.0 mm  (fits between side walls)</text>
    <text x="19" y="427.2" >  Left wall:     220.2 x 29.0 mm</text>
    <text x="19" y="432.2" >  Right wall:    220.2 x 29.0 mm</text>
    <text x="19" y="437.2" ></text>
    <text x="19" y="442.2" font-weight="bold">FEATURES</text>
    <text x="19" y="447.2" >  Display window:  119.0 x 159.0 mm  (r=2.0mm)</text>
    <text x="19" y="452.2" >  Camera hole:     8.0mm dia  (14.0mm from top)</text>
    <text x="19" y="457.2" >  Camera zone:     43mm above display</text>
    <text x="19" y="462.2" >  Button hole:     12.0mm dia  (right wall)</text>
    <text x="19" y="467.2" >  USB-C cutout:    12.0 x 7.0 mm  (bottom wall)</text>
  </g>
</svg>