<?xml version="1.0" encoding="UTF-8"?>
<svg xmlns="http://www.w3.org/2000/svg"
     width="489mm" height="362mm"
     viewBox="0 0 489 362">
  <!-- Laser-cut enclosure for e-ink camera -->
  <!-- Red = cut, Blue = engrave/score -->
  <!-- Units: mm. Material: 3.0mm plywood. Burn: 0.1mm -->
  <g fill="none" stroke="red" stroke-width="0.1">
    <!-- Front Plate 146x218mm (slots on all edges) -->
    <path d="M19,19 L30.231,19 L30.331,19 L30.331,22 L41.362,22 L41.362,19 L52.692,19 L52.792,19 L52.792,22 L63.823,22 L63.823,19 L75.154,19 L75.254,19 L75.254,22 L86.285,22 L86.285,19 L97.615,19 L97.715,19 L97.715,22 L108.746,22 L108.746,19 L120.077,19 L120.177,19 L120.177,22 L131.208,22 L131.208,19 L142.538,19 L142.638,19 L142.638,22 L153.669,22 L153.669,19 L165,19 L165,30.474 L165,30.574 L162,30.574 L162,41.847 L165,41.847 L165,53.421 L165,53.521 L162,53.521 L162,64.795 L165,64.795 L165,76.368 L165,76.468 L162,76.468 L162,87.742 L165,87.742 L165,99.316 L165,99.416 L162,99.416 L162,110.689 L165,110.689 L165,122.263 L165,122.363 L162,122.363 L162,133.637 L165,133.637 L165,145.211 L165,145.311 L162,145.311 L162,156.584 L165,156.584 L165,168.158 L165,168.258 L162,168.258 L162,179.532 L165,179.532 L165,191.105 L165,191.205 L162,191.205 L162,202.479 L165,202.479 L165,214.053 L165,214.153 L162,214.153 L162,225.426 L165,225.426 L165,237 L153.769,237 L153.669,237 L153.669,234 L142.638,234 L142.638,237 L131.308,237 L131.208,237 L131.208,234 L120.177,234 L120.177,237 L108.846,237 L108.746,237 L108.746,234 L97.715,234 L97.715,237 L86.385,237 L86.285,237 L86.285,234 L75.254,234 L75.254,237 L63.923,237 L63.823,237 L63.823,234 L52.792,234 L52.792,237 L41.462,237 L41.362,237 L41.362,234 L30.331,234 L30.331,237 L19,237 L19,225.526 L19,225.426 L22,225.426 L22,214.153 L19,214.153 L19,202.579 L19,202.479 L22,202.479 L22,191.205 L19,191.205 L19,179.632 L19,179.532 L22,179.532 L22,168.258 L19,168.258 L19,156.684 L19,156.584 L22,156.584 L22,145.311 L19,145.311 L19,133.737 L19,133.637 L22,133.637 L22,122.363 L19,122.363 L19,110.789 L19,110.689 L22,110.689 L22,99.416 L19,99.416 L19,87.842 L19,87.742 L22,87.742 L22,76.468 L19,76.468 L19,64.895 L19,64.795 L22,64.795 L22,53.521 L19,53.521 L19,41.947 L19,41.847 L22,41.847 L22,30.574 L19,30.574 L19,19Z M30.3,50.1 L153.7,50.1 A2,2 0 0,1 155.7,52.1 L155.7,221.7 A2,2 0 0,1 153.7,223.7 L30.3,223.7 A2,2 0 0,1 28.3,221.7 L28.3,52.1 A2,2 0 0,1 30.3,50.1Z M88.1,36 A3.9,3.9 0 1,0 95.9,36 A3.9,3.9 0 1,0 88.1,36Z" fill-rule="evenodd"/>
    <!-- Back Plate 146x218mm (hinged, Pi mount) -->
    <path d="M180,19 L191.231,19 L191.331,19 L191.331,22 L202.362,22 L202.362,19 L213.692,19 L213.792,19 L213.792,22 L224.823,22 L224.823,19 L236.154,19 L236.254,19 L236.254,22 L247.285,22 L247.285,19 L258.615,19 L258.715,19 L258.715,22 L269.746,22 L269.746,19 L281.077,19 L281.177,19 L281.177,22 L292.208,22 L292.208,19 L303.538,19 L303.638,19 L303.638,22 L314.669,22 L314.669,19 L326,19 L326,30.474 L326,30.574 L323,30.574 L323,41.847 L326,41.847 L326,53.421 L326,53.521 L323,53.521 L323,64.795 L326,64.795 L326,76.368 L326,76.468 L323,76.468 L323,87.742 L326,87.742 L326,99.316 L326,99.416 L323,99.416 L323,110.689 L326,110.689 L326,122.263 L326,122.363 L323,122.363 L323,133.637 L326,133.637 L326,145.211 L326,145.311 L323,145.311 L323,156.584 L326,156.584 L326,168.158 L326,168.258 L323,168.258 L323,179.532 L326,179.532 L326,191.105 L326,191.205 L323,191.205 L323,202.479 L326,202.479 L326,214.053 L326,214.153 L323,214.153 L323,225.426 L326,225.426 L326,237 L314.769,237 L314.669,237 L314.669,234 L303.638,234 L303.638,237 L292.308,237 L292.208,237 L292.208,234 L281.177,234 L281.177,237 L269.846,237 L269.746,237 L269.746,234 L258.715,234 L258.715,237 L247.385,237 L247.285,237 L247.285,234 L236.254,234 L236.254,237 L224.923,237 L224.823,237 L224.823,234 L213.792,234 L213.792,237 L202.462,237 L202.362,237 L202.362,234 L191.331,234 L191.331,237 L180,237 L180,225.526 L180,225.426 L183,225.426 L183,214.153 L180,214.153 L180,202.579 L180,202.479 L183,202.479 L183,191.205 L180,191.205 L180,179.632 L180,179.532 L183,179.532 L183,168.258 L180,168.258 L180,156.684 L180,156.584 L183,156.584 L183,145.311 L180,145.311 L180,133.737 L180,133.637 L183,133.637 L183,122.363 L180,122.363 L180,110.789 L180,110.689 L183,110.689 L183,99.416 L180,99.416 L180,87.842 L180,87.742 L183,87.742 L183,76.468 L180,76.468 L180,64.895 L180,64.795 L183,64.795 L183,53.521 L180,53.521 L180,41.947 L180,41.847 L183,41.847 L183,30.574 L180,30.574 L180,19Z M212.85,81.5 A1.15,1.15 0 1,0 215.15,81.5 A1.15,1.15 0 1,0 212.85,81.5Z M212.85,130.5 A1.15,1.15 0 1,0 215.15,130.5 A1.15,1.15 0 1,0 212.85,130.5Z M270.85,81.5 A1.15,1.15 0 1,0 273.15,81.5 A1.15,1.15 0 1,0 270.85,81.5Z M270.85,130.5 A1.15,1.15 0 1,0 273.15,130.5 A1.15,1.15 0 1,0 270.85,130.5Z" fill-rule="evenodd"/>
    <!-- Top Wall 146x30mm (tabs all edges) -->
    <path d="M19,260 L30.231,260 L30.131,260 L30.131,257 L41.562,257 L41.562,260 L52.692,260 L52.592,260 L52.592,257 L64.023,257 L64.023,260 L75.154,260 L75.054,260 L75.054,257 L86.485,257 L86.485,260 L97.615,260 L97.515,260 L97.515,257 L108.946,257 L108.946,260 L120.077,260 L119.977,260 L119.977,257 L131.408,257 L131.408,260 L142.538,260 L142.438,260 L142.438,257 L153.869,257 L153.869,260 L165,260 L165,270 L165,269.9 L168,269.9 L168,280.1 L165,280.1 L165,290 L153.769,290 L153.869,290 L153.869,293 L142.438,293 L142.438,290 L131.308,290 L131.408,290 L131.408,293 L119.977,293 L119.977,290 L108.846,290 L108.946,290 L108.946,293 L97.515,293 L97.515,290 L86.385,290 L86.485,290 L86.485,293 L75.054,293 L75.054,290 L63.923,290 L64.023,290 L64.023,293 L52.592,293 L52.592,290 L41.462,290 L41.562,290 L41.562,293 L30.131,293 L30.131,290 L19,290 L19,280 L19,280.1 L16,280.1 L16,269.9 L19,269.9 L19,260Z"/>
    <!-- Bottom Wall 146x30mm (tabs + USB-C cutout) -->
    <path d="M180,260 L191.231,260 L191.131,260 L191.131,257 L202.562,257 L202.562,260 L213.692,260 L213.592,260 L213.592,257 L225.023,257 L225.023,260 L236.154,260 L236.054,260 L236.054,257 L247.485,257 L247.485,260 L258.615,260 L258.515,260 L258.515,257 L269.946,257 L269.946,260 L281.077,260 L280.977,260 L280.977,257 L292.408,257 L292.408,260 L303.538,260 L303.438,260 L303.438,257 L314.869,257 L314.869,260 L326,260 L326,270 L326,269.9 L329,269.9 L329,280.1 L326,280.1 L326,290 L314.769,290 L314.869,290 L314.869,293 L303.438,293 L303.438,290 L292.308,290 L292.408,290 L292.408,293 L280.977,293 L280.977,290 L269.846,290 L269.946,290 L269.946,293 L258.515,293 L258.515,290 L247.385,290 L247.485,290 L247.485,293 L236.054,293 L236.054,290 L224.923,290 L225.023,290 L225.023,293 L213.592,293 L213.592,290 L202.462,290 L202.562,290 L202.562,293 L191.131,293 L191.131,290 L180,290 L180,280 L180,280.1 L177,280.1 L177,269.9 L180,269.9 L180,260Z M247.1,271.6 L258.9,271.6 L258.9,278.4 L247.1,278.4Z" fill-rule="evenodd"/>
    <!-- Left Wall 218x30mm (tabs all edges) -->
    <path d="M19,313 L30.474,313 L30.374,313 L30.374,310 L42.047,310 L42.047,313 L53.421,313 L53.321,313 L53.321,310 L64.995,310 L64.995,313 L76.368,313 L76.268,313 L76.268,310 L87.942,310 L87.942,313 L99.316,313 L99.216,313 L99.216,310 L110.889,310 L110.889,313 L122.263,313 L122.163,313 L122.163,310 L133.837,310 L133.837,313 L145.211,313 L145.111,313 L145.111,310 L156.784,310 L156.784,313 L168.158,313 L168.058,313 L168.058,310 L179.732,310 L179.732,313 L191.105,313 L191.005,313 L191.005,310 L202.679,310 L202.679,313 L214.053,313 L213.953,313 L213.953,310 L225.626,310 L225.626,313 L237,313 L237,323 L237,322.9 L240,322.9 L240,333.1 L237,333.1 L237,343 L225.526,343 L225.626,343 L225.626,346 L213.953,346 L213.953,343 L202.579,343 L202.679,343 L202.679,346 L191.005,346 L191.005,343 L179.632,343 L179.732,343 L179.732,346 L168.058,346 L168.058,343 L156.684,343 L156.784,343 L156.784,346 L145.111,346 L145.111,343 L133.737,343 L133.837,343 L133.837,346 L122.163,346 L122.163,343 L110.789,343 L110.889,343 L110.889,346 L99.216,346 L99.216,343 L87.842,343 L87.942,343 L87.942,346 L76.268,346 L76.268,343 L64.895,343 L64.995,343 L64.995,346 L53.321,346 L53.321,343 L41.947,343 L42.047,343 L42.047,346 L30.374,346 L30.374,343 L19,343 L19,333 L19,333.1 L16,333.1 L16,322.9 L19,322.9 L19,313Z"/>
    <!-- Right Wall 218x30mm (tabs + button) -->
    <path d="M252,313 L263.474,313 L263.374,313 L263.374,310 L275.047,310 L275.047,313 L286.421,313 L286.321,313 L286.321,310 L297.995,310 L297.995,313 L309.368,313 L309.268,313 L309.268,310 L320.942,310 L320.942,313 L332.316,313 L332.216,313 L332.216,310 L343.889,310 L343.889,313 L355.263,313 L355.163,313 L355.163,310 L366.837,310 L366.837,313 L378.211,313 L378.111,313 L378.111,310 L389.784,310 L389.784,313 L401.158,313 L401.058,313 L401.058,310 L412.732,310 L412.732,313 L424.105,313 L424.005,313 L424.005,310 L435.679,310 L435.679,313 L447.053,313 L446.953,313 L446.953,310 L458.626,310 L458.626,313 L470,313 L470,323 L470,322.9 L473,322.9 L473,333.1 L470,333.1 L470,343 L458.526,343 L458.626,343 L458.626,346 L446.953,346 L446.953,343 L435.579,343 L435.679,343 L435.679,346 L424.005,346 L424.005,343 L412.632,343 L412.732,343 L412.732,346 L401.058,346 L401.058,343 L389.684,343 L389.784,343 L389.784,346 L378.111,346 L378.111,343 L366.737,343 L366.837,343 L366.837,346 L355.163,346 L355.163,343 L343.789,343 L343.889,343 L343.889,346 L332.216,346 L332.216,343 L320.842,343 L320.942,343 L320.942,346 L309.268,346 L309.268,343 L297.895,343 L297.995,343 L297.995,346 L286.321,346 L286.321,343 L274.947,343 L275.047,343 L275.047,346 L263.374,346 L263.374,343 L252,343 L252,333 L252,333.1 L249,333.1 L249,322.9 L252,322.9 L252,313Z M355.1,328 A5.9,5.9 0 1,0 366.9,328 A5.9,5.9 0 1,0 355.1,328Z" fill-rule="evenodd"/>
  </g>
</svg>