<?xml version="1.0" encoding="UTF-8"?>
<svg xmlns="http://www.w3.org/2000/svg"
     width="523mm" height="377mm"
     viewBox="0 0 523 377">
  <!-- Laser-cut enclosure for e-ink camera -->
  <!-- Red = cut, Blue = engrave/score -->
  <!-- Units: mm. Material: 3.0mm plywood. Burn: 0.1mm -->
  <g fill="none" stroke="red" stroke-width="0.1">
    <!-- Front Plate 150x235mm (slots on all edges) -->
    <path d="M19,19 L22,19 L33.077,19 L33.177,19 L33.177,22 L44.054,22 L44.054,19 L55.231,19 L55.331,19 L55.331,22 L66.208,22 L66.208,19 L77.385,19 L77.485,19 L77.485,22 L88.362,22 L88.362,19 L99.538,19 L99.638,19 L99.638,22 L110.515,22 L110.515,19 L121.692,19 L121.792,19 L121.792,22 L132.669,22 L132.669,19 L143.846,19 L143.946,19 L143.946,22 L154.823,22 L154.823,19 L166,19 L169,19 L169,30.19 L169,30.29 L166,30.29 L166,41.281 L169,41.281 L169,52.571 L169,52.671 L166,52.671 L166,63.662 L169,63.662 L169,74.952 L169,75.052 L166,75.052 L166,86.043 L169,86.043 L169,97.333 L169,97.433 L166,97.433 L166,108.424 L169,108.424 L169,119.714 L169,119.814 L166,119.814 L166,130.805 L169,130.805 L169,142.095 L169,142.195 L166,142.195 L166,153.186 L169,153.186 L169,164.476 L169,164.576 L166,164.576 L166,175.567 L169,175.567 L169,186.857 L169,186.957 L166,186.957 L166,197.948 L169,197.948 L169,209.238 L169,209.338 L166,209.338 L166,220.329 L169,220.329 L169,231.619 L169,231.719 L166,231.719 L166,242.71 L169,242.71 L169,254 L166,254 L154.923,254 L154.823,254 L154.823,251 L143.946,251 L143.946,254 L132.769,254 L132.669,254 L132.669,251 L121.792,251 L121.792,254 L110.615,254 L110.515,254 L110.515,251 L99.638,251 L99.638,254 L88.462,254 L88.362,254 L88.362,251 L77.485,251 L77.485,254 L66.308,254 L66.208,254 L66.208,251 L55.331,251 L55.331,254 L44.154,254 L44.054,254 L44.054,251 L33.177,251 L33.177,254 L22,254 L19,254 L19,242.81 L19,242.71 L22,242.71 L22,231.719 L19,231.719 L19,220.429 L19,220.329 L22,220.329 L22,209.338 L19,209.338 L19,198.048 L19,197.948 L22,197.948 L22,186.957 L19,186.957 L19,175.667 L19,175.567 L22,175.567 L22,164.576 L19,164.576 L19,153.286 L19,153.186 L22,153.186 L22,142.195 L19,142.195 L19,130.905 L19,130.805 L22,130.805 L22,119.814 L19,119.814 L19,108.524 L19,108.424 L22,108.424 L22,97.433 L19,97.433 L19,86.143 L19,86.043 L22,86.043 L22,75.052 L19,75.052 L19,63.762 L19,63.662 L22,63.662 L22,52.671 L19,52.671 L19,41.381 L19,41.281 L22,41.281 L22,30.29 L19,30.29 L19,19Z M36.6,65.1 L151.4,65.1 A2,2 0 0,1 153.4,67.1 L153.4,221.9 A2,2 0 0,1 151.4,223.9 L36.6,223.9 A2,2 0 0,1 34.6,221.9 L34.6,67.1 A2,2 0 0,1 36.6,65.1Z M90.1,36 A3.9,3.9 0 1,0 97.9,36 A3.9,3.9 0 1,0 90.1,36Z" fill-rule="evenodd"/>
    <!-- Back Plate 150x235mm (hinged, Pi mount) -->
    <path d="M184,19 L187,19 L198.077,19 L198.177,19 L198.177,22 L209.054,22 L209.054,19 L220.231,19 L220.331,19 L220.331,22 L231.208,22 L231.208,19 L242.385,19 L242.485,19 L242.485,22 L253.362,22 L253.362,19 L264.538,19 L264.638,19 L264.638,22 L275.515,22 L275.515,19 L286.692,19 L286.792,19 L286.792,22 L297.669,22 L297.669,19 L308.846,19 L308.946,19 L308.946,22 L319.823,22 L319.823,19 L331,19 L334,19 L334,30.19 L334,30.29 L331,30.29 L331,41.281 L334,41.281 L334,52.571 L334,52.671 L331,52.671 L331,63.662 L334,63.662 L334,74.952 L334,75.052 L331,75.052 L331,86.043 L334,86.043 L334,97.333 L334,97.433 L331,97.433 L331,108.424 L334,108.424 L334,119.714 L334,119.814 L331,119.814 L331,130.805 L334,130.805 L334,142.095 L334,142.195 L331,142.195 L331,153.186 L334,153.186 L334,164.476 L334,164.576 L331,164.576 L331,175.567 L334,175.567 L334,186.857 L334,186.957 L331,186.957 L331,197.948 L334,197.948 L334,209.238 L334,209.338 L331,209.338 L331,220.329 L334,220.329 L334,231.619 L334,231.719 L331,231.719 L331,242.71 L334,242.71 L334,254 L331,254 L319.923,254 L319.823,254 L319.823,251 L308.946,251 L308.946,254 L297.769,254 L297.669,254 L297.669,251 L286.792,251 L286.792,254 L275.615,254 L275.515,254 L275.515,251 L264.638,251 L264.638,254 L253.462,254 L253.362,254 L253.362,251 L242.485,251 L242.485,254 L231.308,254 L231.208,254 L231.208,251 L220.331,251 L220.331,254 L209.154,254 L209.054,254 L209.054,251 L198.177,251 L198.177,254 L187,254 L184,254 L184,242.81 L184,242.71 L187,242.71 L187,231.719 L184,231.719 L184,220.429 L184,220.329 L187,220.329 L187,209.338 L184,209.338 L184,198.048 L184,197.948 L187,197.948 L187,186.957 L184,186.957 L184,175.667 L184,175.567 L187,175.567 L187,164.576 L184,164.576 L184,153.286 L184,153.186 L187,153.186 L187,142.195 L184,142.195 L184,130.905 L184,130.805 L187,130.805 L187,119.814 L184,119.814 L184,108.524 L184,108.424 L187,108.424 L187,97.433 L184,97.433 L184,86.143 L184,86.043 L187,86.043 L187,75.052 L184,75.052 L184,63.762 L184,63.662 L187,63.662 L187,52.671 L184,52.671 L184,41.381 L184,41.281 L187,41.281 L187,30.29 L184,30.29 L184,19Z M218.85,83.5 A1.15,1.15 0 1,0 221.15,83.5 A1.15,1.15 0 1,0 218.85,83.5Z M218.85,132.5 A1.15,1.15 0 1,0 221.15,132.5 A1.15,1.15 0 1,0 218.85,132.5Z M276.85,83.5 A1.15,1.15 0 1,0 279.15,83.5 A1.15,1.15 0 1,0 276.85,83.5Z M276.85,132.5 A1.15,1.15 0 1,0 279.15,132.5 A1.15,1.15 0 1,0 276.85,132.5Z" fill-rule="evenodd"/>
    <!-- Top Wall 144x29mm (tabs front/back, fits between side walls) -->
    <path d="M19,277 L30.077,277 L29.977,277 L29.977,274 L41.254,274 L41.254,277 L52.231,277 L52.131,277 L52.131,274 L63.408,274 L63.408,277 L74.385,277 L74.285,277 L74.285,274 L85.562,274 L85.562,277 L96.538,277 L96.438,277 L96.438,274 L107.715,274 L107.715,277 L118.692,277 L118.592,277 L118.592,274 L129.869,274 L129.869,277 L140.846,277 L140.746,277 L140.746,274 L152.023,274 L152.023,277 L163,277 L163,286.667 L163,286.567 L166,286.567 L166,296.433 L163,296.433 L163,306 L151.923,306 L152.023,306 L152.023,309 L140.746,309 L140.746,306 L129.769,306 L129.869,306 L129.869,309 L118.592,309 L118.592,306 L107.615,306 L107.715,306 L107.715,309 L96.438,309 L96.438,306 L85.462,306 L85.562,306 L85.562,309 L74.285,309 L74.285,306 L63.308,306 L63.408,306 L63.408,309 L52.131,309 L52.131,306 L41.154,306 L41.254,306 L41.254,309 L29.977,309 L29.977,306 L19,306 L19,296.333 L19,296.433 L16,296.433 L16,286.567 L19,286.567 L19,277Z"/>
    <!-- Bottom Wall 144x29mm (tabs + USB-C cutout, fits between side walls) -->
    <path d="M178,277 L189.077,277 L188.977,277 L188.977,274 L200.254,274 L200.254,277 L211.231,277 L211.131,277 L211.131,274 L222.408,274 L222.408,277 L233.385,277 L233.285,277 L233.285,274 L244.562,274 L244.562,277 L255.538,277 L255.438,277 L255.438,274 L266.715,274 L266.715,277 L277.692,277 L277.592,277 L277.592,274 L288.869,274 L288.869,277 L299.846,277 L299.746,277 L299.746,274 L311.023,274 L311.023,277 L322,277 L322,286.667 L322,286.567 L325,286.567 L325,296.433 L322,296.433 L322,306 L310.923,306 L311.023,306 L311.023,309 L299.746,309 L299.746,306 L288.769,306 L288.869,306 L288.869,309 L277.592,309 L277.592,306 L266.615,306 L266.715,306 L266.715,309 L255.438,309 L255.438,306 L244.462,306 L244.562,306 L244.562,309 L233.285,309 L233.285,306 L222.308,306 L222.408,306 L222.408,309 L211.131,309 L211.131,306 L200.154,306 L200.254,306 L200.254,309 L188.977,309 L188.977,306 L178,306 L178,296.333 L178,296.433 L175,296.433 L175,286.567 L178,286.567 L178,277Z M244.1,288.1 L255.9,288.1 L255.9,294.9 L244.1,294.9Z" fill-rule="evenodd"/>
    <!-- Left Wall 235x29mm (tabs all edges) -->
    <path d="M19,329 L30.19,329 L30.09,329 L30.09,326 L41.481,326 L41.481,329 L52.571,329 L52.471,329 L52.471,326 L63.862,326 L63.862,329 L74.952,329 L74.852,329 L74.852,326 L86.243,326 L86.243,329 L97.333,329 L97.233,329 L97.233,326 L108.624,326 L108.624,329 L119.714,329 L119.614,329 L119.614,326 L131.005,326 L131.005,329 L142.095,329 L141.995,329 L141.995,326 L153.386,326 L153.386,329 L164.476,329 L164.376,329 L164.376,326 L175.767,326 L175.767,329 L186.857,329 L186.757,329 L186.757,326 L198.148,326 L198.148,329 L209.238,329 L209.138,329 L209.138,326 L220.529,326 L220.529,329 L231.619,329 L231.519,329 L231.519,326 L242.91,326 L242.91,329 L254,329 L254,338.667 L254,338.767 L251,338.767 L251,348.233 L254,348.233 L254,358 L242.81,358 L242.91,358 L242.91,361 L231.519,361 L231.519,358 L220.429,358 L220.529,358 L220.529,361 L209.138,361 L209.138,358 L198.048,358 L198.148,358 L198.148,361 L186.757,361 L186.757,358 L175.667,358 L175.767,358 L175.767,361 L164.376,361 L164.376,358 L153.286,358 L153.386,358 L153.386,361 L141.995,361 L141.995,358 L130.905,358 L131.005,358 L131.005,361 L119.614,361 L119.614,358 L108.524,358 L108.624,358 L108.624,361 L97.233,361 L97.233,358 L86.143,358 L86.243,358 L86.243,361 L74.852,361 L74.852,358 L63.762,358 L63.862,358 L63.862,361 L52.471,361 L52.471,358 L41.381,358 L41.481,358 L41.481,361 L30.09,361 L30.09,358 L19,358 L19,348.333 L19,348.233 L22,348.233 L22,338.767 L19,338.767 L19,329Z"/>
    <!-- Right Wall 235x29mm (tabs + button) -->
    <path d="M269,329 L280.19,329 L280.09,329 L280.09,326 L291.481,326 L291.481,329 L302.571,329 L302.471,329 L302.471,326 L313.862,326 L313.862,329 L324.952,329 L324.852,329 L324.852,326 L336.243,326 L336.243,329 L347.333,329 L347.233,329 L347.233,326 L358.624,326 L358.624,329 L369.714,329 L369.614,329 L369.614,326 L381.005,326 L381.005,329 L392.095,329 L391.995,329 L391.995,326 L403.386,326 L403.386,329 L414.476,329 L414.376,329 L414.376,326 L425.767,326 L425.767,329 L436.857,329 L436.757,329 L436.757,326 L448.148,326 L448.148,329 L459.238,329 L459.138,329 L459.138,326 L470.529,326 L470.529,329 L481.619,329 L481.519,329 L481.519,326 L492.91,326 L492.91,329 L504,329 L504,338.667 L504,338.767 L501,338.767 L501,348.233 L504,348.233 L504,358 L492.81,358 L492.91,358 L492.91,361 L481.519,361 L481.519,358 L470.429,358 L470.529,358 L470.529,361 L459.138,361 L459.138,358 L448.048,358 L448.148,358 L448.148,361 L436.757,361 L436.757,358 L425.667,358 L425.767,358 L425.767,361 L414.376,361 L414.376,358 L403.286,358 L403.386,358 L403.386,361 L391.995,361 L391.995,358 L380.905,358 L381.005,358 L381.005,361 L369.614,361 L369.614,358 L358.524,358 L358.624,358 L358.624,361 L347.233,361 L347.233,358 L336.143,358 L336.243,358 L336.243,361 L324.852,361 L324.852,358 L313.762,358 L313.862,358 L313.862,361 L302.471,361 L302.471,358 L291.381,358 L291.481,358 L291.481,361 L280.09,361 L280.09,358 L269,358 L269,348.333 L269,348.233 L272,348.233 L272,338.767 L269,338.767 L269,329Z M380.6,343.5 A5.9,5.9 0 1,0 392.4,343.5 A5.9,5.9 0 1,0 380.6,343.5Z" fill-rule="evenodd"/>
  </g>
</svg>